<?xml version="1.0" encoding="UTF-8" standalone="no"?>
<!-- Created with Inkscape (http://www.inkscape.org/) -->

<svg
   xmlns:dc="http://purl.org/dc/elements/1.1/"
   xmlns:cc="http://creativecommons.org/ns#"
   xmlns:rdf="http://www.w3.org/1999/02/22-rdf-syntax-ns#"
   xmlns:svg="http://www.w3.org/2000/svg"
   xmlns="http://www.w3.org/2000/svg"
   xmlns:sodipodi="http://sodipodi.sourceforge.net/DTD/sodipodi-0.dtd"
   xmlns:inkscape="http://www.inkscape.org/namespaces/inkscape"
   id="svg2"
   version="1.1"
   inkscape:version="0.91 r13725"
   xml:space="preserve"
   width="300"
   height="300"
   viewBox="0 0 300 300"
   sodipodi:docname="file.svg"><metadata
     id="metadata8"><rdf:RDF><cc:Work
         rdf:about=""><dc:format>image/svg+xml</dc:format><dc:type
           rdf:resource="http://purl.org/dc/dcmitype/StillImage" /><dc:title></dc:title></cc:Work></rdf:RDF></metadata><defs
     id="defs6"><clipPath
       clipPathUnits="userSpaceOnUse"
       id="clipPath16"><path
         d="M 0,0 800,0 800,800 0,800 0,0 Z"
         id="path18"
         inkscape:connector-curvature="0" /></clipPath><radialGradient
       fx="0"
       fy="0"
       cx="0"
       cy="0"
       r="1"
       gradientUnits="userSpaceOnUse"
       gradientTransform="matrix(400,0,0,-400,400,400)"
       spreadMethod="pad"
       id="radialGradient24"><stop
         style="stop-opacity:1;stop-color:#ffffff"
         offset="0"
         id="stop26" /><stop
         style="stop-opacity:1;stop-color:#ffffff"
         offset="0.45843781"
         id="stop28" /><stop
         style="stop-opacity:1;stop-color:#e3e4e4"
         offset="1"
         id="stop30" /></radialGradient><clipPath
       clipPathUnits="userSpaceOnUse"
       id="clipPath38"><path
         d="M 0,800 800,800 800,0 0,0 0,800 Z"
         id="path40"
         inkscape:connector-curvature="0" /></clipPath><clipPath
       clipPathUnits="userSpaceOnUse"
       id="clipPath174"><path
         d="M 0,800 800,800 800,0 0,0 0,800 Z"
         id="path176"
         inkscape:connector-curvature="0" /></clipPath></defs><sodipodi:namedview
     pagecolor="#ffffff"
     bordercolor="#666666"
     borderopacity="1"
     objecttolerance="10"
     gridtolerance="10"
     guidetolerance="10"
     inkscape:pageopacity="0"
     inkscape:pageshadow="2"
     inkscape:window-width="1138"
     inkscape:window-height="1032"
     id="namedview4"
     showgrid="false"
     inkscape:zoom="0.472"
     inkscape:cx="231.54195"
     inkscape:cy="678.08761"
     inkscape:window-x="1366"
     inkscape:window-y="24"
     inkscape:window-maximized="0"
     inkscape:current-layer="g172" /><g
     id="g10"
     inkscape:groupmode="layer"
     inkscape:label="7"
     transform="matrix(1.25,0,0,-1.25,0,300)"><g
       id="g170"
       transform="translate(-4.7939403,14.381828)"><g
         id="g172"
         clip-path="url(#clipPath174)"><g
           id="g206"
           transform="translate(195.53694,153.16837)"><path
             d="m 0,0 c -0.06,1.354 -1.176,2.423 -2.531,2.423 l -77.369,0 -22.578,20.94 c -0.468,0.434 -1.084,0.677 -1.723,0.677 l -35.472,0 c -0.7,0 -1.369,-0.29 -1.848,-0.801 L -161.78,1.628 c -0.468,-0.498 -0.713,-1.162 -0.683,-1.844 l 5.066,-115.544 c 0.06,-1.354 1.175,-2.423 2.531,-2.423 l 157.401,0 c 0.692,0 1.353,0.284 1.831,0.782 0.478,0.5 0.73,1.173 0.7,1.863 L 0,0 Z"
             style="fill:#d99833;fill-opacity:1;fill-rule:nonzero;stroke:none"
             id="path208"
             inkscape:connector-curvature="0" /></g><g
           id="g210"
           transform="translate(188.59454,135.34707)"><path
             d="m 0,0 -147.523,-4.896 c -1.398,-0.046 -2.495,-1.217 -2.448,-2.616 l 2.88,-86.759 c 0.046,-1.398 1.217,-2.494 2.615,-2.448 l 147.524,4.896 c 1.398,0.046 2.494,1.217 2.448,2.616 L 2.617,-2.448 C 2.57,-1.05 1.398,0.046 0,0"
             style="fill:#e6e6e6;fill-opacity:1;fill-rule:nonzero;stroke:none"
             id="path212"
             inkscape:connector-curvature="0" /></g><g
           id="g214"
           transform="translate(195.57754,144.63427)"><path
             d="m 0,0 -147.589,2.239 c -1.398,0.021 -2.55,-1.094 -2.571,-2.494 l -1.317,-86.796 c -0.022,-1.401 1.096,-2.551 2.494,-2.573 l 147.588,-2.238 c 1.399,-0.021 2.551,1.095 2.572,2.493 L 2.494,-2.572 C 2.515,-1.172 1.398,-0.021 0,0"
             style="fill:#f2f2f2;fill-opacity:1;fill-rule:nonzero;stroke:none"
             id="path216"
             inkscape:connector-curvature="0" /></g><g
           id="g218"
           transform="translate(203.24354,139.61367)"><path
             d="m 0,0 -146.54,17.706 c -1.389,0.168 -2.65,-0.822 -2.818,-2.211 l -10.414,-86.18 c -0.167,-1.389 0.823,-2.65 2.212,-2.819 l 146.538,-17.705 c 1.39,-0.168 2.652,0.821 2.82,2.211 L 2.21,-2.819 C 2.379,-1.429 1.389,-0.167 0,0"
             style="fill:#ffffff;fill-opacity:1;fill-rule:nonzero;stroke:none"
             id="path220"
             inkscape:connector-curvature="0" /></g><g
           id="g222"
           transform="translate(220.26794,163.79827)"><path
             d="m 0,0 c -0.48,0.566 -1.187,0.892 -1.929,0.892 l -78.364,0 c -0.638,0 -1.253,-0.242 -1.722,-0.676 l -22.578,-20.942 -54.738,0 c -1.211,0 -2.251,-0.857 -2.485,-2.044 l -20.267,-103.02 c -0.146,-0.743 0.048,-1.513 0.53,-2.098 0.481,-0.585 1.198,-0.924 1.956,-0.924 l 157.401,0 c 1.243,0 2.302,0.9 2.502,2.126 L 0.572,-2.049 C 0.691,-1.315 0.482,-0.566 0,0"
             style="fill:#ffb33c;fill-opacity:1;fill-rule:nonzero;stroke:none"
             id="path224"
             inkscape:connector-curvature="0" /></g><g
           id="g226"
           transform="translate(38.715238,35.910065)"><path
             d="m 0,0 c 0.481,-0.584 1.198,-0.924 1.955,-0.924 l 157.401,0 c 1.244,0 2.303,0.901 2.502,2.127 L 167.744,37.397 -0.531,2.098 C -0.676,1.355 -0.482,0.585 0,0"
             style="fill:#f2aa39;fill-opacity:1;fill-rule:nonzero;stroke:none"
             id="path228"
             inkscape:connector-curvature="0" /></g></g></g></g></svg>